<svg id="svg" version="1.1" xmlns="http://www.w3.org/2000/svg" xmlns:xlink="http://www.w3.org/1999/xlink" width="400" height="400" viewBox="0, 0, 400,400"><g id="svgg"><path id="path0" d="M230.042 148.975 C 229.359 150.391,228.800 151.746,228.800 151.986 C 228.800 152.226,228.260 153.493,227.600 154.800 C 226.940 156.107,226.400 157.409,226.400 157.692 C 226.400 157.976,226.040 158.432,225.600 158.707 C 225.146 158.991,224.800 159.640,224.800 160.209 C 224.800 160.760,224.643 161.523,224.450 161.905 C 224.258 162.287,223.718 163.345,223.250 164.254 C 222.783 165.164,222.400 166.201,222.400 166.559 C 222.400 166.916,222.061 167.972,221.647 168.904 C 221.233 169.837,220.297 172.040,219.566 173.800 C 218.836 175.560,217.915 177.372,217.519 177.826 C 217.124 178.280,216.800 179.099,216.800 179.646 C 216.800 180.193,216.642 180.811,216.449 181.020 C 216.257 181.229,215.736 182.391,215.292 183.602 C 214.848 184.814,213.749 187.373,212.851 189.291 C 211.953 191.208,210.839 193.951,210.375 195.386 C 209.912 196.821,209.368 198.096,209.166 198.221 C 208.965 198.345,208.800 198.797,208.800 199.224 C 208.800 199.651,208.627 200.000,208.415 200.000 C 208.204 200.000,207.826 200.765,207.575 201.700 C 207.014 203.789,204.832 208.551,204.351 208.733 C 204.158 208.807,204.000 209.195,204.000 209.596 C 204.000 210.225,203.505 211.407,201.950 214.495 C 201.757 214.877,201.600 215.524,201.600 215.933 C 201.600 216.341,201.240 217.002,200.800 217.400 C 200.360 217.798,199.994 218.591,199.987 219.162 C 199.981 219.733,199.532 221.100,198.991 222.200 C 198.450 223.300,198.006 224.419,198.004 224.686 C 197.999 225.254,196.743 226.000,195.790 226.000 C 195.091 226.000,187.494 218.544,187.072 217.443 C 186.936 217.089,186.613 216.800,186.353 216.800 C 185.772 216.800,183.459 214.458,183.092 213.500 C 182.945 213.115,182.616 212.800,182.361 212.800 C 181.805 212.800,175.424 206.360,175.072 205.443 C 174.936 205.089,174.594 204.795,174.313 204.789 C 174.031 204.783,173.020 204.063,172.066 203.189 C 171.112 202.315,170.167 201.600,169.966 201.600 C 169.765 201.600,169.600 201.324,169.600 200.987 C 169.600 200.650,169.285 200.245,168.900 200.087 C 168.515 199.929,166.324 197.820,164.031 195.400 C 161.737 192.980,159.262 190.385,158.531 189.633 C 157.799 188.882,157.200 188.068,157.200 187.826 C 157.200 187.344,160.273 183.477,160.817 183.274 C 161.353 183.074,183.200 161.136,183.200 160.797 C 183.200 160.629,183.651 160.196,184.203 159.835 C 186.030 158.638,194.015 150.211,193.902 149.600 C 193.695 148.485,183.200 148.545,183.200 149.662 C 183.200 149.908,181.760 151.554,180.000 153.321 C 178.240 155.089,176.800 156.684,176.800 156.867 C 176.800 157.050,176.628 157.200,176.418 157.200 C 175.977 157.200,174.000 159.097,174.000 159.520 C 174.000 159.676,173.208 160.433,172.239 161.202 C 171.270 161.971,170.055 163.092,169.539 163.693 C 168.365 165.059,159.539 174.000,159.365 174.000 C 159.052 174.000,157.200 176.076,157.200 176.427 C 157.200 176.641,156.795 177.015,156.300 177.258 C 155.805 177.500,154.590 178.652,153.600 179.817 C 152.610 180.983,151.485 182.053,151.100 182.195 C 150.483 182.423,150.400 183.063,150.400 187.578 L 150.400 192.702 153.300 195.826 C 154.895 197.544,156.810 199.501,157.556 200.175 C 158.925 201.412,170.622 213.127,171.444 214.083 C 171.687 214.368,172.841 215.410,174.008 216.400 C 175.174 217.390,176.414 218.534,176.764 218.943 C 178.264 220.695,180.892 223.200,181.232 223.200 C 181.434 223.200,181.600 223.487,181.600 223.837 C 181.600 224.188,181.954 224.567,182.387 224.681 C 182.819 224.794,183.282 225.227,183.414 225.643 C 183.546 226.059,183.814 226.400,184.009 226.400 C 184.205 226.400,185.023 226.847,185.828 227.393 C 187.288 228.384,187.315 228.386,195.746 228.272 C 204.885 228.148,205.825 227.952,206.223 226.088 C 206.469 224.934,206.678 224.459,208.194 221.600 C 208.719 220.610,209.546 218.547,210.034 217.015 C 210.930 214.196,212.141 211.352,213.531 208.800 C 213.951 208.030,214.522 206.680,214.801 205.800 C 215.080 204.920,215.644 203.722,216.054 203.138 C 216.464 202.554,216.800 201.787,216.800 201.433 C 216.800 201.079,216.955 200.477,217.146 200.095 C 219.501 195.359,222.487 188.007,222.975 185.741 C 223.124 185.049,223.595 184.166,224.023 183.779 C 224.450 183.393,224.800 182.668,224.800 182.170 C 224.800 181.672,225.050 180.755,225.355 180.132 C 227.163 176.440,228.175 174.187,229.546 170.800 C 231.068 167.043,232.140 165.884,232.626 167.470 C 232.749 167.872,233.378 169.328,234.025 170.708 C 234.671 172.087,235.200 173.647,235.200 174.174 C 235.200 174.702,235.335 175.193,235.500 175.267 C 235.956 175.469,237.769 179.355,239.388 183.600 C 240.185 185.690,241.009 187.713,241.219 188.095 C 241.428 188.477,241.600 189.168,241.600 189.630 C 241.600 190.093,241.928 190.771,242.328 191.136 C 243.157 191.892,244.608 195.475,244.981 197.687 C 245.119 198.505,245.494 199.437,245.816 199.759 C 246.137 200.080,246.400 200.626,246.400 200.971 C 246.400 201.317,246.536 201.600,246.702 201.600 C 246.868 201.600,247.430 202.725,247.950 204.100 C 249.054 207.019,250.077 209.323,251.660 212.456 C 252.287 213.697,252.800 215.171,252.800 215.732 C 252.800 216.294,252.958 216.850,253.151 216.970 C 253.344 217.089,253.901 218.224,254.390 219.493 C 257.879 228.556,257.804 228.475,262.650 228.316 L 266.200 228.200 266.323 226.500 C 266.397 225.484,266.274 224.800,266.018 224.800 C 265.590 224.800,263.200 219.984,263.200 219.122 C 263.200 218.667,261.439 214.460,259.967 211.400 C 259.544 210.520,259.198 209.575,259.199 209.300 C 259.200 209.025,259.020 208.800,258.800 208.800 C 258.580 208.800,258.400 208.356,258.400 207.814 C 258.400 207.272,257.855 205.968,257.188 204.917 C 256.521 203.865,255.616 201.796,255.176 200.319 C 254.736 198.841,254.201 197.524,253.988 197.392 C 253.775 197.261,253.600 196.901,253.600 196.594 C 253.600 196.287,253.038 194.813,252.351 193.318 C 251.664 191.823,250.733 189.790,250.282 188.800 C 249.832 187.810,249.097 186.280,248.650 185.400 C 248.202 184.520,247.883 183.710,247.940 183.600 C 248.054 183.379,246.714 180.209,245.549 177.946 C 245.137 177.146,244.800 176.276,244.800 176.013 C 244.800 175.538,242.721 170.437,241.984 169.105 C 241.773 168.723,241.600 167.978,241.600 167.448 C 241.600 166.919,241.359 166.393,241.065 166.280 C 240.771 166.168,240.033 164.663,239.426 162.938 C 238.819 161.212,237.439 158.011,236.361 155.825 C 235.282 153.639,234.400 151.702,234.400 151.521 C 234.400 151.340,234.059 150.428,233.643 149.496 C 233.227 148.563,232.783 147.485,232.656 147.100 C 232.211 145.750,231.272 146.423,230.042 148.975 M10.900 149.251 C 10.168 149.997,10.168 227.407,10.900 227.866 C 11.672 228.350,39.458 228.527,42.000 228.064 C 45.195 227.483,49.712 226.203,51.218 225.451 C 51.936 225.093,52.783 224.800,53.101 224.800 C 53.419 224.800,54.183 224.260,54.800 223.600 C 55.499 222.852,56.319 222.400,56.978 222.400 C 58.030 222.400,60.048 220.845,62.558 218.100 C 63.212 217.385,63.984 216.800,64.274 216.800 C 64.563 216.800,64.800 216.543,64.800 216.229 C 64.800 215.915,65.228 215.322,65.750 214.911 C 66.273 214.499,67.086 213.451,67.557 212.582 C 68.029 211.712,69.029 210.190,69.780 209.200 C 70.532 208.210,71.159 207.169,71.173 206.887 C 71.188 206.604,71.635 205.514,72.167 204.465 C 72.699 203.415,73.259 201.891,73.412 201.078 C 73.564 200.265,73.849 199.600,74.045 199.600 C 74.240 199.600,74.400 199.251,74.400 198.824 C 74.400 198.397,74.580 197.936,74.800 197.800 C 75.268 197.511,75.366 179.202,74.900 179.197 C 74.464 179.192,73.600 177.185,73.600 176.177 C 73.600 175.378,71.430 170.421,70.292 168.622 C 70.021 168.193,69.015 166.573,68.055 165.022 C 67.096 163.470,65.778 161.771,65.126 161.248 C 64.474 160.724,63.778 159.869,63.580 159.348 C 63.382 158.826,62.891 158.400,62.488 158.400 C 62.086 158.400,61.158 157.782,60.426 157.027 C 59.694 156.271,58.263 155.271,57.247 154.803 C 56.231 154.336,54.950 153.698,54.400 153.385 C 52.571 152.346,48.931 150.800,48.314 150.800 C 47.978 150.800,46.582 150.442,45.211 150.003 C 43.840 149.565,42.151 149.201,41.459 149.193 C 40.766 149.185,33.720 149.081,25.800 148.960 C 14.438 148.788,11.295 148.849,10.900 149.251 M82.896 149.595 C 81.987 151.050,82.255 154.987,83.300 155.544 C 84.581 156.226,130.145 156.016,130.835 155.325 C 131.515 154.645,131.527 150.281,130.851 149.464 C 129.916 148.333,83.605 148.460,82.896 149.595 M140.480 149.280 C 139.913 149.847,139.781 226.636,140.346 227.526 C 140.943 228.467,146.805 228.681,147.460 227.786 C 148.150 226.842,148.273 150.857,147.586 149.574 C 147.092 148.651,141.346 148.414,140.480 149.280 M273.029 149.428 C 272.684 149.773,272.303 150.448,272.184 150.928 C 271.671 152.984,272.189 227.149,272.720 227.680 C 273.448 228.409,298.257 228.663,303.600 227.997 C 307.287 227.537,313.263 225.815,313.533 225.135 C 313.607 224.951,314.181 224.800,314.811 224.800 C 315.440 224.800,316.190 224.485,316.477 224.100 C 316.765 223.715,317.887 222.953,318.972 222.406 C 320.056 221.860,321.514 220.825,322.212 220.106 C 322.910 219.388,323.667 218.800,323.894 218.800 C 324.122 218.800,324.603 218.350,324.963 217.800 C 325.324 217.250,325.889 216.800,326.219 216.800 C 326.549 216.800,327.003 216.305,327.228 215.700 C 327.452 215.095,327.866 214.420,328.146 214.200 C 328.995 213.535,332.800 207.745,332.800 207.119 C 332.800 206.798,333.249 205.650,333.799 204.568 C 334.348 203.486,334.908 202.015,335.043 201.300 C 335.178 200.585,335.410 200.000,335.558 200.000 C 335.705 200.000,335.861 199.185,335.905 198.189 C 335.948 197.193,336.167 196.035,336.392 195.615 C 337.705 193.162,336.666 179.700,334.800 175.000 C 334.625 174.560,334.100 173.090,333.632 171.734 C 332.644 168.868,330.898 165.600,330.356 165.600 C 330.149 165.600,329.807 165.145,329.596 164.589 C 329.384 164.033,328.428 162.728,327.471 161.689 C 326.513 160.650,325.617 159.485,325.478 159.100 C 325.339 158.715,324.913 158.400,324.532 158.400 C 324.150 158.400,323.290 157.877,322.619 157.237 C 321.358 156.035,318.836 154.455,316.400 153.342 C 315.630 152.990,314.646 152.518,314.213 152.293 C 312.272 151.285,307.047 149.904,303.200 149.384 C 296.866 148.527,273.897 148.560,273.029 149.428 M345.230 149.364 C 344.944 149.709,344.808 150.990,344.881 152.659 L 345.000 155.389 346.600 155.655 C 347.480 155.802,357.740 155.946,369.400 155.975 C 391.223 156.030,393.166 155.907,393.229 154.461 C 393.245 154.097,393.297 153.080,393.344 152.200 C 393.392 151.320,393.260 150.195,393.051 149.700 L 392.672 148.800 369.185 148.800 C 349.462 148.800,345.623 148.890,345.230 149.364 M38.200 156.237 C 39.740 156.362,41.769 156.530,42.708 156.611 C 43.647 156.691,45.087 157.103,45.908 157.524 C 46.729 157.946,48.120 158.518,49.000 158.795 C 51.548 159.598,58.400 164.441,58.400 165.438 C 58.400 165.571,58.895 166.187,59.500 166.807 C 60.105 167.427,60.896 168.264,61.259 168.667 C 61.867 169.343,63.599 172.832,64.503 175.200 C 64.712 175.750,65.132 176.740,65.434 177.400 C 66.235 179.149,67.298 187.070,67.045 189.400 C 66.724 192.348,66.090 196.804,65.768 198.379 C 65.430 200.033,61.404 208.133,60.580 208.816 C 60.261 209.081,60.000 209.546,60.000 209.849 C 60.000 210.152,59.809 210.400,59.575 210.400 C 59.342 210.400,57.943 211.615,56.466 213.100 C 53.551 216.033,52.099 217.200,51.368 217.200 C 51.109 217.200,50.674 217.470,50.400 217.800 C 50.126 218.130,49.659 218.400,49.363 218.400 C 49.066 218.400,47.802 218.867,46.554 219.438 C 42.015 221.515,20.983 222.667,19.533 220.919 C 19.100 220.397,18.994 214.494,18.969 189.438 C 18.952 172.477,18.800 158.210,18.631 157.733 C 17.930 155.755,25.280 155.193,38.200 156.237 M299.864 156.102 C 300.119 156.267,301.630 156.489,303.221 156.595 C 305.117 156.722,306.585 157.066,307.480 157.594 C 308.231 158.037,309.275 158.400,309.799 158.400 C 310.324 158.400,310.864 158.580,311.000 158.800 C 311.136 159.020,311.552 159.205,311.924 159.211 C 312.296 159.217,313.307 159.757,314.171 160.411 C 315.035 161.065,315.890 161.600,316.071 161.600 C 316.252 161.600,316.732 161.915,317.137 162.300 C 317.542 162.685,318.682 163.659,319.670 164.464 C 321.381 165.859,324.800 170.935,324.800 172.081 C 324.800 172.379,325.160 172.930,325.600 173.307 C 326.243 173.858,326.651 175.176,326.341 175.700 C 326.308 175.755,326.652 176.526,327.105 177.413 C 329.794 182.685,328.487 202.160,325.363 203.359 C 325.054 203.478,324.800 203.868,324.800 204.227 C 324.800 206.383,319.183 213.583,316.063 215.426 C 315.369 215.837,314.800 216.314,314.800 216.486 C 314.800 216.659,314.372 216.800,313.849 216.800 C 313.326 216.800,312.667 217.078,312.384 217.419 C 311.569 218.402,308.030 219.859,305.200 220.378 C 303.770 220.640,301.845 221.022,300.923 221.227 C 297.605 221.965,281.681 221.700,281.255 220.900 C 280.431 219.355,280.502 157.155,281.329 156.329 C 281.916 155.742,298.986 155.534,299.864 156.102 M82.783 185.940 C 82.451 187.796,82.418 189.054,82.680 189.840 L 83.067 191.000 106.033 191.000 L 129.000 191.000 129.051 188.133 C 129.079 186.556,129.013 184.801,128.904 184.233 L 128.707 183.200 105.990 183.200 L 83.273 183.200 82.783 185.940 M345.284 183.816 C 344.929 184.218,344.804 185.430,344.884 187.700 L 345.000 191.000 367.400 191.108 L 389.800 191.216 390.500 190.364 C 392.732 187.646,390.685 183.468,387.400 184.040 C 384.358 184.569,346.685 184.256,346.500 183.700 C 346.285 183.054,345.926 183.088,345.284 183.816 M105.037 221.504 C 80.809 221.620,82.400 221.385,82.400 224.840 C 82.400 228.699,80.660 228.456,107.339 228.319 C 133.154 228.186,131.236 228.467,131.253 224.812 C 131.271 221.058,133.707 221.366,105.037 221.504 M346.500 221.523 L 344.800 221.646 344.800 224.780 C 344.800 227.760,344.847 227.925,345.767 228.156 C 347.154 228.504,390.556 228.396,391.888 228.041 C 393.159 227.702,393.779 222.979,392.674 222.061 C 392.204 221.671,351.081 221.192,346.500 221.523 M2.814 235.974 C 2.586 236.399,2.400 237.816,2.400 239.121 L 2.400 241.495 3.900 241.744 C 4.725 241.881,92.863 241.993,199.763 241.993 C 306.662 241.992,394.189 242.055,394.266 242.133 C 394.344 242.211,395.261 242.058,396.304 241.794 L 398.200 241.313 398.313 239.070 C 398.405 237.251,398.272 236.672,397.613 236.013 L 396.800 235.200 200.014 235.200 C 5.867 235.200,3.223 235.210,2.814 235.974 " stroke="none" fill="#fa8b5c" fill-rule="evenodd"></path></g></svg>